name analog
datacolumns 19
datarows 69
range 0.318 0.352
endheader
time	ground_force_vx	ground_force_vy	ground_force_vz	ground_force_px	ground_force_py	ground_force_pz	l_ground_force_vx	l_ground_force_vy	l_ground_force_vz	l_ground_force_px	l_ground_force_py	l_ground_force_pz	ground_torque_x	ground_torque_y	ground_torque_z	l_ground_torque_x	l_ground_torque_y	l_ground_torque_z
0.318	-0.0	-0.0	-0.0	-0.0	-0.0	-0.0	1.5967941284179688	4.329983234405518	-509.75433349609375	-0.0	-0.0	-0.0	-0.0	-0.0	-0.0	175466.3125	-25264.87890625	772.6055297851562
0.3185	-0.0	-0.0	-0.0	-0.0	-0.0	-0.0	1.0637609958648682	4.415319442749023	-509.75982666015625	-0.0	-0.0	-0.0	-0.0	-0.0	-0.0	176119.265625	-25524.83203125	565.4948120117188
0.319	-0.0	-0.0	-0.0	-0.0	-0.0	-0.0	0.974252462387085	4.593663215637207	-508.7213134765625	-0.0	-0.0	-0.0	-0.0	-0.0	-0.0	175845.6875	-25355.548828125	209.2984771728516
0.3195	-0.0	-0.0	-0.0	-0.0	-0.0	-0.0	0.1776576489210128	4.681049346923828	-508.0137634277344	-0.0	-0.0	-0.0	-0.0	-0.0	-0.0	175707.734375	-25514.474609375	60.24869918823242
0.32	-0.0	-0.0	-0.0	-0.0	-0.0	-0.0	0.4428547024726867	4.328110694885254	-507.66644287109375	-0.0	-0.0	-0.0	-0.0	-0.0	-0.0	175330.234375	-25209.5390625	31.07833671569824
0.3205	-0.0	-0.0	-0.0	-0.0	-0.0	-0.0	0.4437616169452667	3.79741883277893	-505.571533203125	-0.0	-0.0	-0.0	-0.0	-0.0	-0.0	174566.8125	-25151.76171875	119.90158081054688
0.321	-0.0	-0.0	-0.0	-0.0	-0.0	-0.0	0.2662391066551208	2.119800090789795	-505.9214477539063	-0.0	-0.0	-0.0	-0.0	-0.0	-0.0	174131.796875	-25045.40234375	0.7099291682243347
0.3215	-0.0	-0.0	-0.0	-0.0	-0.0	-0.0	-0.088602602481842	1.5899338722229004	-505.9208679199219	-0.0	-0.0	-0.0	-0.0	-0.0	-0.0	174029.109375	-24948.580078125	-88.67539978027344
0.322	-0.0	-0.0	-0.0	-0.0	-0.0	-0.0	-0.443893551826477	1.0595221519470217	-509.410888671875	-0.0	-0.0	-0.0	-0.0	-0.0	-0.0	174391.09375	-25374.3671875	-415.4188232421875
0.3225	-0.0	-0.0	-0.0	-0.0	-0.0	-0.0	-1.419556736946106	1.0594934225082395	-508.3676452636719	-0.0	-0.0	-0.0	-0.0	-0.0	-0.0	174852.859375	-25312.580078125	-771.88232421875
0.323	-0.0	-0.0	-0.0	-0.0	-0.0	-0.0	-2.217033863067627	1.854022979736328	-510.8069152832031	-0.0	-0.0	-0.0	-0.0	-0.0	-0.0	175074.71875	-25936.6953125	-920.6090698242188
0.3235	-0.0	-0.0	-0.0	-0.0	-0.0	-0.0	-1.6858272552490234	1.7670756578445437	-509.4147644042969	-0.0	-0.0	-0.0	-0.0	-0.0	-0.0	174549.859375	-25618.837890625	-861.3306884765625
0.324	-0.0	-0.0	-0.0	-0.0	-0.0	-0.0	-0.8871078491210938	1.5010864734649658	-506.6190185546875	-0.0	-0.0	-0.0	-0.0	-0.0	-0.0	173506.875	-25865.185546875	-771.64306640625
0.3245	-0.0	-0.0	-0.0	-0.0	-0.0	-0.0	0.4430990815162658	0.6191574931144714	-504.1784973144531	-0.0	-0.0	-0.0	-0.0	-0.0	-0.0	171837.921875	-25909.189453125	-177.35975646972656
0.325	-0.0	-0.0	-0.0	-0.0	-0.0	-0.0	1.595730185508728	-0.1750544905662536	-500.6980590820313	-0.0	-0.0	-0.0	-0.0	-0.0	-0.0	170821.6875	-25904.96484375	387.4344482421875
0.3255	-0.0	-0.0	-0.0	-0.0	-0.0	-0.0	2.128464460372925	-1.4113719463348389	-501.0279235839844	-0.0	-0.0	-0.0	-0.0	-0.0	-0.0	169899.96875	-26166.404296875	1038.403076171875
0.326	-0.0	-0.0	-0.0	-0.0	-0.0	-0.0	2.834044933319092	-2.645639657974243	-499.2815246582031	-0.0	-0.0	-0.0	-0.0	-0.0	-0.0	169173.703125	-26474.814453125	1276.6727294921875
0.3265	-0.0	-0.0	-0.0	-0.0	-0.0	-0.0	3.2771027088165283	-2.738711357116699	-497.5498352050781	-0.0	-0.0	-0.0	-0.0	-0.0	-0.0	168322.0	-26742.01171875	1425.7572021484375
0.327	-0.0	-0.0	-0.0	-0.0	-0.0	-0.0	3.8153674602508554	-3.532867431640625	-497.188720703125	-0.0	-0.0	-0.0	-0.0	-0.0	-0.0	167572.953125	-26887.341796875	1662.46484375
0.3275	-0.0	-0.0	-0.0	-0.0	-0.0	-0.0	3.994627952575684	-4.498266696929932	-495.0727233886719	-0.0	-0.0	-0.0	-0.0	-0.0	-0.0	166436.5625	-26761.044921875	1901.0806884765625
0.328	-0.0	-0.0	-0.0	-0.0	-0.0	-0.0	4.438365936279297	-4.2385029792785645	-490.20513916015625	-0.0	-0.0	-0.0	-0.0	-0.0	-0.0	164967.125	-26332.970703125	2018.28955078125
0.3285	-0.0	-0.0	-0.0	-0.0	-0.0	-0.0	5.057528018951416	-4.064815044403076	-486.7333068847656	-0.0	-0.0	-0.0	-0.0	-0.0	-0.0	163237.953125	-25893.212890625	1990.3939208984373
0.329	-0.0	-0.0	-0.0	-0.0	-0.0	-0.0	5.413538455963135	-4.063883304595947	-484.97161865234375	-0.0	-0.0	-0.0	-0.0	-0.0	-0.0	162312.46875	-25639.34375	2048.54296875
0.3295	-0.0	-0.0	-0.0	-0.0	-0.0	-0.0	5.588779449462891	-4.595021724700928	-484.6178894042969	-0.0	-0.0	-0.0	-0.0	-0.0	-0.0	162337.34375	-25512.68359375	1991.4541015625
0.33	-0.0	-0.0	-0.0	-0.0	-0.0	-0.0	5.501297950744629	-4.947238445281982	-484.6175842285156	-0.0	-0.0	-0.0	-0.0	-0.0	-0.0	162295.140625	-25805.96484375	1958.42724609375
0.3305	-0.0	-0.0	-0.0	-0.0	-0.0	-0.0	5.757099628448486	-5.385034084320068	-486.7275695800781	-0.0	-0.0	-0.0	-0.0	-0.0	-0.0	162974.3125	-25620.890625	1724.54541015625
0.331	-0.0	-0.0	-0.0	-0.0	-0.0	-0.0	5.142502307891846	-5.034336090087891	-488.1139526367188	-0.0	-0.0	-0.0	-0.0	-0.0	-0.0	162830.65625	-25709.205078125	1397.0438232421875
0.3315	-0.0	-0.0	-0.0	-0.0	-0.0	-0.0	5.146664142608643	-4.508703231811523	-487.4269714355469	-0.0	-0.0	-0.0	-0.0	-0.0	-0.0	162928.9375	-25416.298828125	1160.3748779296875
0.332	-0.0	-0.0	-0.0	-0.0	-0.0	-0.0	4.261117935180664	-4.675074577331543	-487.0783386230469	-0.0	-0.0	-0.0	-0.0	-0.0	-0.0	162943.328125	-25234.47265625	834.9444580078125
0.3325	-0.0	-0.0	-0.0	-0.0	-0.0	-0.0	4.34525728225708	-4.507534503936768	-488.1015930175781	-0.0	-0.0	-0.0	-0.0	-0.0	-0.0	162802.859375	-25173.357421875	593.6500244140625
0.333	-0.0	-0.0	-0.0	-0.0	-0.0	-0.0	3.2872438430786133	-4.5943684577941895	-489.8597412109375	-0.0	-0.0	-0.0	-0.0	-0.0	-0.0	163267.46875	-25113.98828125	296.1578369140625
0.3335	-0.0	-0.0	-0.0	-0.0	-0.0	-0.0	2.6647427082061768	-3.804641008377075	-490.5715026855469	-0.0	-0.0	-0.0	-0.0	-0.0	-0.0	163887.0	-25321.583984375	-292.8532409667969
0.334	-0.0	-0.0	-0.0	-0.0	-0.0	-0.0	2.3011200428009038	-3.36333966255188	-491.9405822753906	-0.0	-0.0	-0.0	-0.0	-0.0	-0.0	164393.078125	-25283.072265625	-651.2290649414062
0.3345	-0.0	-0.0	-0.0	-0.0	-0.0	-0.0	2.040348052978516	-2.2135910987854004	-491.64935302734375	-0.0	-0.0	-0.0	-0.0	-0.0	-0.0	165109.171875	-25356.859375	-769.7549438476562
0.335	-0.0	-0.0	-0.0	-0.0	-0.0	-0.0	1.8571683168411253	-0.7161283493041992	-495.4234924316406	-0.0	-0.0	-0.0	-0.0	-0.0	-0.0	165628.59375	-25483.59375	-977.132568359375
0.3355	-0.0	-0.0	-0.0	-0.0	-0.0	-0.0	1.9556303024291992	-0.1746555864810943	-496.8427734375	-0.0	-0.0	-0.0	-0.0	-0.0	-0.0	165799.046875	-25426.162109375	-977.5668334960938
0.336	-0.0	-0.0	-0.0	-0.0	-0.0	-0.0	2.3828437328338623	0.4416084289550781	-495.1050720214844	-0.0	-0.0	-0.0	-0.0	-0.0	-0.0	165900.25	-25737.373046875	-1124.05029296875
0.3365	-0.0	-0.0	-0.0	-0.0	-0.0	-0.0	2.21351170539856	0.7129323482513428	-496.1193237304688	-0.0	-0.0	-0.0	-0.0	-0.0	-0.0	166151.65625	-25405.54296875	-1092.2545166015625
0.337	-0.0	-0.0	-0.0	-0.0	-0.0	-0.0	2.122440814971924	1.1481819152832031	-497.8728332519531	-0.0	-0.0	-0.0	-0.0	-0.0	-0.0	166518.515625	-25414.470703125	-1154.35888671875
0.3375	-0.0	-0.0	-0.0	-0.0	-0.0	-0.0	2.1154532432556152	1.327082872390747	-499.6092224121094	-0.0	-0.0	-0.0	-0.0	-0.0	-0.0	167105.609375	-25586.080078125	-1208.31787109375
0.338	-0.0	-0.0	-0.0	-0.0	-0.0	-0.0	1.5080833435058594	2.651984930038452	-500.6557312011719	-0.0	-0.0	-0.0	-0.0	-0.0	-0.0	168214.34375	-25845.98828125	-1447.8714599609375
0.3385	-0.0	-0.0	-0.0	-0.0	-0.0	-0.0	1.5919818878173828	3.618793487548828	-503.47662353515625	-0.0	-0.0	-0.0	-0.0	-0.0	-0.0	168631.9375	-26016.607421875	-1361.68994140625
0.339	-0.0	-0.0	-0.0	-0.0	-0.0	-0.0	1.9516372680664065	4.497007369995117	-504.7952270507813	-0.0	-0.0	-0.0	-0.0	-0.0	-0.0	168985.921875	-25886.4453125	-1185.6878662109375
0.3395	-0.0	-0.0	-0.0	-0.0	-0.0	-0.0	1.9644081592559812	5.208436489105225	-503.4565124511719	-0.0	-0.0	-0.0	-0.0	-0.0	-0.0	168815.59375	-25939.326171875	-1215.2138671875
0.34	-0.0	-0.0	-0.0	-0.0	-0.0	-0.0	2.1264431476593018	5.133074760437012	-503.44573974609375	-0.0	-0.0	-0.0	-0.0	-0.0	-0.0	169149.984375	-25930.328125	-1330.3162841796875
0.3405	-0.0	-0.0	-0.0	-0.0	-0.0	-0.0	1.932830572128296	5.047710418701172	-505.5186767578125	-0.0	-0.0	-0.0	-0.0	-0.0	-0.0	169680.46875	-25427.484375	-1334.9202880859375
0.341	-0.0	-0.0	-0.0	-0.0	-0.0	-0.0	0.5460827946662903	5.285543441772461	-506.5972595214844	-0.0	-0.0	-0.0	-0.0	-0.0	-0.0	170124.078125	-25658.72265625	-1745.6749267578125
0.3415	-0.0	-0.0	-0.0	-0.0	-0.0	-0.0	-0.1717710494995117	5.122657775878906	-509.3677673339844	-0.0	-0.0	-0.0	-0.0	-0.0	-0.0	170927.171875	-25250.619140625	-1901.0986328125
0.342	-0.0	-0.0	-0.0	-0.0	-0.0	-0.0	-1.153240203857422	5.128437042236328	-509.7727661132813	-0.0	-0.0	-0.0	-0.0	-0.0	-0.0	171448.703125	-25184.83984375	-2279.7666015625
0.3425	-0.0	-0.0	-0.0	-0.0	-0.0	-0.0	-1.945690631866455	5.293380737304688	-512.5428466796875	-0.0	-0.0	-0.0	-0.0	-0.0	-0.0	171707.5625	-25224.1484375	-2638.150146484375
0.343	-0.0	-0.0	-0.0	-0.0	-0.0	-0.0	-2.994922637939453	5.475944519042969	-512.9036865234375	-0.0	-0.0	-0.0	-0.0	-0.0	-0.0	172025.359375	-24868.90234375	-3051.06103515625
0.3435	-0.0	-0.0	-0.0	-0.0	-0.0	-0.0	-3.634030103683472	5.640194416046143	-514.9251708984375	-0.0	-0.0	-0.0	-0.0	-0.0	-0.0	171899.296875	-24616.794921875	-3090.374755859375
0.34400000000000003	-0.0	-0.0	-0.0	-0.0	-0.0	-0.0	-3.71950626373291	5.302460670471191	-515.2977905273438	-0.0	-0.0	-0.0	-0.0	-0.0	-0.0	172111.625	-24338.849609375	-3110.717041015625
0.34450000000000003	-0.0	-0.0	-0.0	-0.0	-0.0	-0.0	-3.903274536132813	4.249131679534912	-515.2966918945312	-0.0	-0.0	-0.0	-0.0	-0.0	-0.0	172177.0625	-24336.384765625	-2941.69140625
0.34500000000000003	-0.0	-0.0	-0.0	-0.0	-0.0	-0.0	-4.869129180908203	4.222906589508057	-515.6968994140625	-0.0	-0.0	-0.0	-0.0	-0.0	-0.0	172244.921875	-24100.857421875	-3150.110595703125
0.34550000000000003	-0.0	-0.0	-0.0	-0.0	-0.0	-0.0	-5.561718940734863	3.984579086303711	-515.0652465820312	-0.0	-0.0	-0.0	-0.0	-0.0	-0.0	172179.15625	-23850.59375	-3261.46337890625
0.34600000000000003	-0.0	-0.0	-0.0	-0.0	-0.0	-0.0	-5.943622589111328	3.723289012908936	-515.6968994140625	-0.0	-0.0	-0.0	-0.0	-0.0	-0.0	171874.046875	-23643.34765625	-3294.8330078125
0.34650000000000003	-0.0	-0.0	-0.0	-0.0	-0.0	-0.0	-6.121044158935547	3.886154174804688	-512.6240234375	-0.0	-0.0	-0.0	-0.0	-0.0	-0.0	171458.953125	-23186.29296875	-3419.453125
0.34700000000000003	-0.0	-0.0	-0.0	-0.0	-0.0	-0.0	-6.121044158935547	3.889730215072632	-513.6303100585938	-0.0	-0.0	-0.0	-0.0	-0.0	-0.0	170799.1875	-23348.775390625	-3241.550048828125
0.34750000000000003	-0.0	-0.0	-0.0	-0.0	-0.0	-0.0	-6.028664588928223	3.705857992172241	-512.947021484375	-0.0	-0.0	-0.0	-0.0	-0.0	-0.0	170621.640625	-23682.99609375	-3150.188232421875
0.34800000000000003	-0.0	-0.0	-0.0	-0.0	-0.0	-0.0	-5.422577857971191	3.610018491744995	-512.23486328125	-0.0	-0.0	-0.0	-0.0	-0.0	-0.0	170750.21875	-23317.37890625	-3000.25830078125
0.34850000000000003	-0.0	-0.0	-0.0	-0.0	-0.0	-0.0	-5.145225524902344	3.4369759559631348	-513.2977905273438	-0.0	-0.0	-0.0	-0.0	-0.0	-0.0	170510.578125	-23152.10546875	-2811.971435546875
0.34900000000000003	-0.0	-0.0	-0.0	-0.0	-0.0	-0.0	-4.605204582214356	3.3600850105285645	-514.3155517578125	-0.0	-0.0	-0.0	-0.0	-0.0	-0.0	170248.828125	-23451.076171875	-2411.69287109375
0.34950000000000003	-0.0	-0.0	-0.0	-0.0	-0.0	-0.0	-3.633202791213989	2.8380603790283203	-514.5875244140625	-0.0	-0.0	-0.0	-0.0	-0.0	-0.0	169741.078125	-23503.2734375	-2230.617919921875
0.35000000000000003	-0.0	-0.0	-0.0	-0.0	-0.0	-0.0	-2.9960837364196777	2.822294950485229	-513.9827880859375	-0.0	-0.0	-0.0	-0.0	-0.0	-0.0	169096.3125	-23436.15625	-1899.9124755859373
0.35050000000000003	-0.0	-0.0	-0.0	-0.0	-0.0	-0.0	-1.967987060546875	1.5258857011795044	-511.1418762207031	-0.0	-0.0	-0.0	-0.0	-0.0	-0.0	168814.84375	-23760.7109375	-1464.1175537109375
0.35100000000000003	-0.0	-0.0	-0.0	-0.0	-0.0	-0.0	-1.2543970346450806	0.8031561374664307	-512.1890869140625	-0.0	-0.0	-0.0	-0.0	-0.0	-0.0	168352.015625	-23728.98828125	-1190.0242919921875
0.35150000000000003	-0.0	-0.0	-0.0	-0.0	-0.0	-0.0	-0.3590689599514007	0.4584375917911529	-512.5046997070312	-0.0	-0.0	-0.0	-0.0	-0.0	-0.0	168167.328125	-24028.3828125	-1036.96728515625
0.352	-0.0	-0.0	-0.0	-0.0	-0.0	-0.0	0.2618452608585357	0.0128048658370971	-512.3067016601562	-0.0	-0.0	-0.0	-0.0	-0.0	-0.0	168502.9375	-23883.33984375	-889.7317504882812
